<svg width="32" height="33" viewBox="0 0 32 33" fill="none" xmlns="http://www.w3.org/2000/svg">
<g clip-path="url(#clip0_59_2226)">
<rect y="0.5" width="32" height="32" rx="16" fill="#909399"/>
<path d="M19.656 20.031C22.4687 20.9063 24.7187 22.469 26.406 24.719C28.0933 26.969 28.958 29.5627 29 32.5H3C3.042 29.5627 3.90667 26.969 5.594 24.719C7.28133 22.469 9.53133 20.9063 12.344 20.031L16 25.5L19.656 20.031ZM22.5 13C22.458 14.8333 21.8227 16.3647 20.594 17.594C19.3653 18.8233 17.834 19.4587 16 19.5C14.1667 19.458 12.6353 18.8227 11.406 17.594C10.1767 16.3653 9.54133 14.834 9.5 13C9.542 11.1667 10.1773 9.63533 11.406 8.406C12.6347 7.17667 14.166 6.54133 16 6.5C17.8333 6.542 19.3647 7.17733 20.594 8.406C21.8233 9.63467 22.4587 11.166 22.5 13Z" fill="white"/>
</g>
<defs>
<clipPath id="clip0_59_2226">
<rect y="0.5" width="32" height="32" rx="16" fill="white"/>
</clipPath>
</defs>
</svg>
