<!-- <svg viewBox="0 0 1024 1024" version="1.1" xmlns="http://www.w3.org/2000/svg"><path d="M688 608v-24a24 24 0 1 1 48 0v24h48a32 32 0 0 1 32 32v80a32 32 0 0 1-32 32h-48v56a24 24 0 1 1-48 0v-56h-48a32 32 0 0 1-32-32v-80a32 32 0 0 1 32-32h48z m0 48h-32v48h32v-48z m48 0v48h32v-48h-32zM487.104 464h49.792L512 410.56 487.104 464z m-22.4 48l-18.848 40.384a24 24 0 1 1-43.52-20.256l87.36-187.296A23.904 23.904 0 0 1 522.176 332c5.76 2.688 9.92 7.36 12.128 12.832l87.36 187.296a24 24 0 0 1-43.52 20.256L559.264 512h-94.56zM840 512a24 24 0 1 1-48 0 280 280 0 1 0-280 280 24 24 0 1 1 0 48c-181.12 0-328-146.88-328-328s146.88-328 328-328 328 146.88 328 328z" fill="currentColor"></path></svg> -->
<svg viewBox="0 0 1024 1024" version="1.1" xmlns="http://www.w3.org/2000/svg"><path d="M651.3 390.041h325.224a47.76 47.76 0 0 1 46.623 48.897v536.165A47.76 47.76 0 0 1 976.524 1024H419.322a47.76 47.76 0 0 1-46.623-48.897V633.959H46.907A47.76 47.76 0 0 1 0.284 585.062V48.897A47.76 47.76 0 0 1 46.907 0h557.77A47.76 47.76 0 0 1 651.3 48.897zM46.907 585.061h557.77V48.898H46.907v536.165z m635.665-16.488l-102.343 278.6h45.485l25.018-71.64h113.714l25.018 71.64h43.78l-102.912-278.6z m-22.175 170.572l44.35-126.223 47.19 126.223z m-354.22-625.43h35.251v71.071h135.32v188.198h-35.251V350.81H341.428v130.77h-33.546V350.81h-97.226v22.174h-35.251V184.786h132.477z m-95.52 200.706h96.657v-93.246h-96.658z m130.771 0h100.069v-93.246H341.428z"></path></svg>