<svg width="16" height="18" viewBox="0 0 16 18" fill="none" xmlns="http://www.w3.org/2000/svg">
<path d="M6.33333 0.666016C4.49238 0.666016 3 2.1584 3 3.99935V6.49935H0.5V8.16602H3V13.9993C3 14.9198 2.25381 15.666 1.33333 15.666H0.5V17.3327H1.33333C3.17428 17.3327 4.66667 15.8403 4.66667 13.9993V8.16602H7.16667V6.49935H4.66667V3.99935C4.66667 3.07887 5.41286 2.33268 6.33333 2.33268H7.16667V0.666016H6.33333ZM10.6685 13.1636L7.90892 16.4993H10.072L11.75 14.4709L13.4281 16.4993H15.5911L12.8316 13.1636L15.5872 9.83268H13.4241L11.75 11.8563L10.076 9.83268H7.91292L10.6685 13.1636Z" fill="currentColor"/>
</svg>
