<svg width="20" height="20" viewBox="0 0 20 20" fill="none" xmlns="http://www.w3.org/2000/svg">
<path d="M7.49996 5.83333V8.33333H9.99996C9.99996 9.71408 8.88071 10.8333 7.49996 10.8333C6.11925 10.8333 4.99996 9.71408 4.99996 8.33333C4.99996 6.95258 6.11925 5.83333 7.49996 5.83333Z" fill="currentColor"/>
<path d="M15 5.83333H10.8333V7.5H15V5.83333Z" fill="currentColor"/>
<path d="M15 9.16667H10.8333V10.8333H15V9.16667Z" fill="currentColor"/>
<path fill-rule="evenodd" clip-rule="evenodd" d="M10.8333 16.6667V15H17.5068C17.9539 15 18.3333 14.6241 18.3333 14.1604V3.33957C18.3333 2.8741 17.9633 2.5 17.5068 2.5H2.49313C2.04605 2.5 1.66663 2.87589 1.66663 3.33957V14.1604C1.66663 14.6259 2.03667 15 2.49313 15H9.16663V16.6667H5.83329V18.3333H14.1666V16.6667H10.8333ZM16.6666 4.16667V13.3333H3.33329V4.16667H16.6666Z" fill="currentColor"/>
</svg>
