<svg width="20" height="20" viewBox="0 0 20 20" fill="none" xmlns="http://www.w3.org/2000/svg">
<path d="M14.1667 1.66602V3.33268H16.6722C17.1293 3.33268 17.5 3.70347 17.5 4.16052V17.5048C17.5 17.962 17.1292 18.3327 16.6722 18.3327H3.32783C2.87063 18.3327 2.5 17.9619 2.5 17.5048V4.16052C2.5 3.70332 2.87079 3.33268 3.32783 3.33268H5.83333V1.66602H14.1667ZM5.83333 4.99935H4.16667V16.666H15.8333V4.99935H14.1667V6.66602H5.83333V4.99935ZM14.1667 12.4993V14.166H5.83333V12.4993H14.1667ZM14.1667 9.16602V10.8327H5.83333V9.16602H14.1667ZM12.5 3.33268H7.5V4.99935H12.5V3.33268Z" fill="currentColor"/>
</svg>
