<svg viewBox="0 0 20 20" fill="none" xmlns="http://www.w3.org/2000/svg">
<path d="M5.00004 17.917C3.38921 17.917 2.08337 16.6112 2.08337 15.0004C2.08337 13.3895 3.38921 12.0837 5.00004 12.0837C6.32104 12.0837 7.43693 12.9619 7.79572 14.1664L12.5 14.1665V12.5004L14.1667 12.4999V7.70318L12.2975 5.83317H7.50004V7.50038H2.50004V2.50038H7.50004V4.16651H12.2975L15 1.46484L18.5355 5.00038L15.8334 7.70151V12.4999L17.5 12.5004V17.5004H12.5V15.8332L7.79587 15.8339C7.43724 17.0386 6.32123 17.917 5.00004 17.917ZM5.00004 13.7504C4.30968 13.7504 3.75004 14.31 3.75004 15.0004C3.75004 15.6908 4.30968 16.2504 5.00004 16.2504C5.6904 16.2504 6.25004 15.6908 6.25004 15.0004C6.25004 14.31 5.6904 13.7504 5.00004 13.7504ZM15.8334 14.167H14.1667V15.8337H15.8334V14.167ZM15 3.82186L13.8215 5.00038L15 6.17888L16.1785 5.00038L15 3.82186ZM5.83337 4.16704H4.16671V5.83371H5.83337V4.16704Z" fill="currentColor"/>
</svg>
