<svg width="20" height="20" viewBox="0 0 20 20" fill="none" xmlns="http://www.w3.org/2000/svg">
<path d="M10 0.833984L16.8474 2.35563C17.2287 2.44037 17.5 2.77854 17.5 3.16913V11.4914C17.5 13.1632 16.6645 14.7243 15.2735 15.6517L10 19.1673L4.7265 15.6517C3.33551 14.7243 2.5 13.1632 2.5 11.4914V3.16913C2.5 2.77854 2.77128 2.44037 3.15256 2.35563L10 0.833984ZM10 2.54131L4.16667 3.8376V11.4914C4.16667 12.6059 4.72367 13.6467 5.651 14.2649L10 17.1642L14.349 14.2649C15.2763 13.6467 15.8333 12.6059 15.8333 11.4914V3.8376L10 2.54131ZM13.7103 6.85218L14.8888 8.03068L9.5855 13.334L6.04999 9.79848L7.22851 8.6199L9.58492 10.9764L13.7103 6.85218Z" fill="currentColor"/>
</svg>
