<svg viewBox="0 0 24 24" fill="none" xmlns="http://www.w3.org/2000/svg">
  <g>
  <path d="M8.92392 18.2C8.90779 18.2442 8.88927 18.2873 8.87254 18.3321C8.81579 18.4818 8.7668 18.6363 8.71661 18.7879C8.68615 18.8781 8.65269 18.9665 8.62342 19.0561C8.59056 19.1629 8.56367 19.2702 8.53201 19.3769C8.49139 19.5172 8.44837 19.6552 8.41074 19.7973C8.397 19.8504 8.38684 19.9029 8.3737 19.9565C8.32411 20.1535 8.27572 20.3522 8.2345 20.5526C8.23091 20.5692 8.22912 20.5863 8.22494 20.6039C8.0726 21.3504 7.97342 22.1134 7.9328 22.8953C7.93041 22.9554 7.93101 23.0179 7.92862 23.0786C7.92025 23.2844 7.91309 23.4902 7.91309 23.6983C10.7944 23.6983 13.4936 22.9336 15.8193 21.604V15.8945C15.8193 15.8945 15.5678 11.7482 18.2168 9.95925C18.2502 9.93744 18.2819 9.91975 18.3147 9.8997C16.0929 11.7287 16.5314 15.8933 16.5314 15.8945H21.6047C22.9513 13.5985 23.7256 10.9351 23.7262 8.09129V8.0907C16.9538 8.09129 11.1774 12.2942 8.92392 18.2Z" fill="#2BB57B"/>
  <path d="M14.8079 5.78585C14.824 5.74162 14.8437 5.69858 14.8598 5.65436C14.9166 5.50459 14.965 5.35011 15.0158 5.19798C15.0462 5.10777 15.0797 5.01991 15.1084 4.9297C15.1418 4.82297 15.1693 4.71566 15.2004 4.60893C15.2416 4.4686 15.284 4.33063 15.3217 4.18911C15.3354 4.13546 15.3455 4.08298 15.3581 4.02991C15.4083 3.83179 15.4561 3.63368 15.4979 3.4332C15.5009 3.4161 15.5039 3.39959 15.5069 3.38249C15.6598 2.63542 15.759 1.87244 15.7996 1.09117C15.802 1.03103 15.8008 0.968525 15.8038 0.907793C15.8127 0.70142 15.8193 0.495638 15.8193 0.288086C12.938 0.288086 10.2394 1.05284 7.91306 2.38129V8.09132C7.91306 8.09132 8.16517 12.2376 5.51502 14.0266C5.48217 14.0484 5.4505 14.0661 5.41824 14.0861C7.63944 12.2565 7.20094 8.09368 7.20094 8.09132H2.12766C0.781078 10.3879 0.00622559 13.0507 0.00622559 15.8946V15.8951C6.77916 15.8946 12.5544 11.6922 14.8079 5.78585Z" fill="#1765E6"/>
  </g>
</svg>
